<svg width="24" height="24" viewBox="0 0 24 24" fill="none" xmlns="http://www.w3.org/2000/svg">
<path d="M20.3584 3.26582H18.8394V2H18.0799V3.26582H5.92799V2H5.1685V3.26582H3.64951C3.23179 3.26582 2.89001 3.60759 2.89001 4.02532L2.89001 21.2405C2.89001 21.6582 3.23179 22 3.64951 22H20.3584C20.7761 22 21.1179 21.6582 21.1179 21.2405V4.02532C21.1179 3.60759 20.7761 3.26582 20.3584 3.26582ZM20.3584 7.56962H3.64951V4.02532H5.1685V5.29114H5.92799V4.02532H18.0799V5.29114H18.8394V4.02532H20.3584V7.56962Z" fill="#0057D2"/>
<path d="M3.54999 7.79795H20.3568V4.03003H3.54999V7.79795Z" fill="#E6EEFB"/>
<path d="M17.4829 19.5776L7.38542 9.48012L6.84998 10.0156L9.28035 12.4497L8.74871 14.7092C8.73531 14.7658 8.73509 14.8248 8.74808 14.8815C8.76106 14.9382 8.78689 14.9911 8.82359 15.0363C8.86029 15.0814 8.90686 15.1175 8.95972 15.1418C9.01258 15.1661 9.07031 15.1779 9.12846 15.1763H10.9626L10.2677 19.6763C10.2552 19.7597 10.2707 19.845 10.312 19.9185C10.3533 19.9921 10.4178 20.0498 10.4955 20.0826C10.5438 20.1022 10.5954 20.1125 10.6474 20.113C10.7054 20.1129 10.7626 20.0995 10.8146 20.0738C10.8666 20.0481 10.9121 20.0109 10.9474 19.9649L13.4842 16.6497L16.9474 20.113L17.4829 19.5776Z" fill="white"/>
<path d="M14.6462 15.127L15.8842 13.5092C15.924 13.4553 15.9489 13.3917 15.9563 13.325C15.9636 13.2583 15.9531 13.1908 15.9259 13.1295C15.8974 13.062 15.8499 13.0043 15.7893 12.9632C15.7286 12.9221 15.6574 12.8994 15.5842 12.8978H13.7804L14.4449 9.94341C14.4575 9.88736 14.4572 9.8292 14.444 9.77329C14.4309 9.71738 14.4052 9.66518 14.369 9.62062C14.3324 9.57555 14.286 9.53945 14.2334 9.51509C14.1807 9.49074 14.1232 9.47877 14.0652 9.48012H10.2677C10.1804 9.47778 10.095 9.50559 10.0259 9.55884C9.9567 9.6121 9.908 9.68756 9.88795 9.77252L9.77403 10.2662L14.6462 15.127Z" fill="white"/>
</svg>
