<svg width="20" height="20" viewBox="0 0 20 20" fill="none" xmlns="http://www.w3.org/2000/svg"><path d="M16.6847 3.01266H15.4695V2H14.8619V3.01266H5.1404V2H4.53281V3.01266H3.31762C2.98344 3.01266 2.71002 3.28608 2.71002 3.62025L2.71002 17.3924C2.71002 17.7266 2.98344 18 3.31762 18H16.6847C17.0189 18 17.2923 17.7266 17.2923 17.3924V3.62025C17.2923 3.28608 17.0189 3.01266 16.6847 3.01266ZM16.6847 6.4557H3.31762V3.62025H4.53281V4.63291H5.1404V3.62025H14.8619V4.63291H15.4695V3.62025H16.6847V6.4557Z" fill="#0057D2"/><path d="M3.23999 6.63433H16.6854V3.62H3.23999V6.63433Z" fill="#E6EEFB"/><path d="M14.5958 15.8582L13.7481 16.7058L5.66998 8.62769L6.51764 7.78003L14.5958 15.8582Z" fill="white"/><path d="M10.6368 14.4431L9.15729 16.3777C9.12901 16.4144 9.09237 16.4441 9.05084 16.4646C9.00938 16.485 8.96325 16.4957 8.91705 16.4958C8.87569 16.4954 8.83429 16.487 8.79596 16.4714C8.73418 16.4452 8.68237 16.3991 8.64948 16.3406C8.61668 16.2818 8.60334 16.2128 8.61334 16.1462L9.11237 12.9187L10.6368 14.4431Z" fill="white"/><path d="M8.73932 12.5466H7.70221C7.65596 12.5478 7.6095 12.5386 7.56744 12.5193C7.52538 12.4999 7.4873 12.4703 7.45807 12.4343C7.42905 12.3984 7.40783 12.3553 7.39752 12.3103C7.38737 12.2653 7.38786 12.2176 7.3985 12.1726L7.58209 11.3894L8.73932 12.5466Z" fill="white"/><path d="M11.6514 7.98999C11.6976 7.98892 11.7443 7.99807 11.7862 8.01733C11.8281 8.03673 11.8654 8.06646 11.8946 8.10229C11.9235 8.13779 11.9446 8.17985 11.9551 8.22437C11.9656 8.26889 11.9651 8.31547 11.9551 8.36011L11.4239 10.7234H12.8672C12.9255 10.7247 12.983 10.7435 13.0313 10.7761C13.0795 10.8089 13.1179 10.8553 13.1407 10.9089C13.1624 10.9578 13.1699 11.012 13.1641 11.0652C13.1583 11.1185 13.1384 11.1695 13.1065 11.2126L12.1163 12.5076L8.21881 8.6189L8.30963 8.22339C8.32571 8.15566 8.36486 8.095 8.41998 8.05249C8.4751 8.01005 8.54382 7.98832 8.61334 7.98999H11.6514Z" fill="white"/></svg>
