<svg width="20" height="20" viewBox="0 0 20 20" fill="none" xmlns="http://www.w3.org/2000/svg"><path d="M8.58582 2.58212C9.36687 1.80108 10.6332 1.80108 11.4142 2.58212L17.4178 8.5857C18.1989 9.36675 18.1989 10.6331 17.4178 11.4141L11.4142 17.4177C10.6332 18.1987 9.36687 18.1987 8.58582 17.4177L2.58225 11.4141C1.8012 10.6331 1.8012 9.36675 2.58225 8.5857L8.58582 2.58212Z" fill="white"/><path d="M9.99987 12.0799C10.5742 12.0799 11.0396 12.5455 11.0397 13.1198C11.0397 13.6942 10.5742 14.1596 9.99987 14.1596C9.42556 14.1595 8.96002 13.6941 8.96002 13.1198C8.96011 12.5455 9.42561 12.08 9.99987 12.0799Z" fill="#BB0000"/><path d="M9.99987 5.67993C10.5301 5.67993 10.96 6.10989 10.96 6.64009V9.84009C10.9599 10.3702 10.53 10.8002 9.99987 10.8002C9.46979 10.8002 9.03979 10.3702 9.03971 9.84009V6.64009C9.03971 6.10994 9.46974 5.68001 9.99987 5.67993Z" fill="#BB0000"/></svg>
